<svg width="31" height="25" viewBox="0 0 31 25" fill="none" xmlns="http://www.w3.org/2000/svg">
<g clip-path="url(#clip0_1_242)">
<path d="M17.1268 20.3249C16.7571 18.6098 16.4035 16.8902 16.0146 15.1794C15.6146 13.4204 15.1265 11.6746 14.7905 9.90533C14.6977 9.41883 14.4625 9.33409 14.0768 9.23183C13.3119 9.03021 12.5294 8.85928 11.7982 8.57731C11.5885 8.49696 11.4045 8.05867 11.4493 7.82346C11.4845 7.63645 11.875 7.4027 12.1294 7.37786C12.4398 7.34718 12.7759 7.50789 13.0975 7.59408C13.7456 7.76794 14.3793 8.01338 15.0401 8.10834C16.3347 8.29535 16.0419 9.32241 16.3347 10.031C16.4675 10.3538 16.4787 10.7191 16.5507 11.0946C18.5125 11.2509 20.4472 11.3926 22.3802 11.5621C23.7307 11.6804 25.0765 11.8353 26.4239 11.9741C27.5008 12.0398 28.6001 12.0077 29.6514 12.1932C31.1812 12.4649 30.9924 12.5424 30.8708 13.7959C30.7492 15.0392 30.3859 16.2649 30.0803 17.4892C30.0227 17.7186 29.7442 17.9012 29.5666 18.1057C29.4818 18.1189 29.3954 18.132 29.3106 18.1437C25.8126 18.1393 22.3162 18.1335 18.8182 18.1379C18.6374 18.1379 18.4549 18.2343 18.2741 18.2854C18.3685 18.7266 18.4613 19.1664 18.5557 19.6076C18.6197 19.6383 18.6854 19.6675 18.7494 19.6982H19.5335L19.7095 19.7026C20.2375 19.7026 20.7656 19.7026 21.2937 19.7026C21.3529 19.7011 21.4105 19.6996 21.4697 19.6982C21.9449 19.6982 22.4186 19.6982 22.8938 19.6982L23.0699 19.7026C23.5979 19.7026 24.126 19.7026 24.654 19.7026C24.7133 19.7011 24.7709 19.6996 24.8301 19.6982C25.3053 19.6982 25.779 19.6982 26.2542 19.6982C26.3134 19.6996 26.371 19.7011 26.4303 19.7026C26.9567 19.7026 27.4848 19.7026 28.0112 19.7026C28.0704 19.7026 28.1296 19.7011 28.1873 19.6996C28.6945 19.7858 29.4018 19.5243 29.4994 20.3264C29.4178 21.2468 28.6129 20.9868 28.024 21.0773C27.4896 21.0773 26.9551 21.0773 26.4207 21.0759C24.7149 21.0759 23.0075 21.0759 21.3017 21.0759C20.2935 21.0671 19.2854 21.07 18.2789 21.0437C17.7396 21.0306 17.2676 20.883 17.1236 20.3206L17.1268 20.3249Z" fill="#2E3080"/>
<path d="M6.27108 20.4521C6.27108 19.8954 6.58951 19.6675 7.18638 19.593C8.60095 19.4148 9.43464 18.6872 9.44264 17.6996C9.39304 17.6602 9.34503 17.6192 9.29543 17.5798C6.73993 17.5798 4.18444 17.5798 1.62894 17.5798C1.57133 17.5783 1.51373 17.5754 1.45612 17.574C1.35211 17.571 1.2465 17.5666 1.14248 17.5637C0.308786 17.2262 -0.00965034 16.6945 -4.92264e-05 15.8164C0.0511567 11.1223 0.0223534 6.42679 0.0287541 1.7327C0.0287541 0.835672 0.33599 0.471892 1.2945 0.160706C1.34891 0.141714 1.40331 0.122721 1.45932 0.103729C2.47384 0.0686654 3.48995 0.0350632 4.50447 0C9.57866 0.00876579 14.6528 0.0146097 19.727 0.0277583C20.8936 0.0306803 22.0601 0.0628215 23.2266 0.0818141C23.2874 0.10519 23.3483 0.128565 23.4091 0.153401C24.2844 0.36378 24.6556 0.945245 24.6604 1.70787C24.6812 4.42234 24.6684 7.13682 24.6684 10.0135C23.7499 9.94041 22.8538 9.87028 21.9593 9.80016C21.9417 9.75194 21.9241 9.70227 21.9049 9.65406C21.9049 9.12373 21.9049 8.59194 21.9049 8.06161C21.9033 8.00755 21.9017 7.9535 21.9001 7.9009V6.7482C21.9017 6.69414 21.9033 6.64009 21.9049 6.58749V4.99504C21.9033 4.94098 21.9017 4.88693 21.9001 4.83433V3.68163C21.9017 3.62758 21.9033 3.57352 21.9049 3.52093C21.9049 3.28279 21.9081 3.04319 21.9097 2.80505C21.8665 2.76122 21.8233 2.71593 21.7801 2.67211C15.4897 2.67211 9.19942 2.67357 2.90909 2.67503C2.86428 2.71886 2.82108 2.76122 2.77627 2.80505C2.77627 3.04465 2.77947 3.28279 2.77947 3.52239V11.1311C2.77947 11.6629 2.77947 12.1947 2.77947 12.7265C2.82268 13.1604 2.86588 13.5928 2.90909 14.0267H13.856C14.3664 16.3204 14.8593 18.544 15.3537 20.7662C15.3089 20.8041 15.2641 20.8436 15.2193 20.8816C15.0065 20.8976 14.7953 20.9137 14.5824 20.9298C12.9278 20.9298 11.2749 20.9298 9.62027 20.9313H7.86326C7.54322 20.9093 7.22319 20.8889 6.90475 20.867L6.72073 20.7764C6.57031 20.6697 6.41989 20.5631 6.27108 20.455V20.4521ZM12.1118 16.7967C12.2318 16.7996 12.3502 16.8011 12.4702 16.804C12.6974 16.5133 13.0591 16.243 13.1215 15.9245C13.2143 15.4541 12.8782 15.2174 12.3054 15.1926C11.6877 15.1663 11.3501 15.4409 11.4221 15.9158C11.4701 16.2328 11.8701 16.5045 12.1118 16.7967Z" fill="#2E3080"/>
<path d="M20.42 23.6369C20.428 24.3104 19.9351 24.7662 19.2022 24.7618C18.7174 24.7589 18.0181 24.1102 18.0197 23.6661C18.0229 23.1372 18.655 22.5923 19.279 22.5791C19.8887 22.566 20.4136 23.0525 20.42 23.6369Z" fill="#2E3080"/>
<path d="M25.8654 22.5937C26.8591 22.5718 27.4176 22.9225 27.4592 23.593C27.5056 24.3323 26.9823 24.7136 25.8654 24.756C24.7533 23.9261 24.7533 23.3198 25.8654 22.5923V22.5937Z" fill="#2E3080"/>
</g>
<defs>
<clipPath id="clip0_1_242">
<rect width="30.9524" height="24.7619" fill="white"/>
</clipPath>
</defs>
</svg>
